<?xml version="1.0" encoding="utf-8"?>
<!-- Generator: Adobe Illustrator 24.1.2, SVG Export Plug-In . SVG Version: 6.00 Build 0)  -->
<svg version="1.1" id="Layer_1" xmlns="http://www.w3.org/2000/svg" xmlns:xlink="http://www.w3.org/1999/xlink" x="0px" y="0px"
	 viewBox="0 0 254 100" style="enable-background:new 0 0 254 100;" xml:space="preserve">
<style type="text/css">
	.st0{fill:#FFFFFF;}
</style>
<g>
	<g>
		<g>
			<path class="st0" d="M23.9,41l12.5,6.4v7.4c-1.7,1.3-2.8,3.3-2.8,5.7c0,2.2,1,4.2,2.5,5.5h0.3v0.1c-1.8-0.9-3.8-1.3-5.9-1.3h-8.9
				c-1,0-2,0.5-2.5,1.3l-7.6-3.9V47.4L23.9,41z"/>
			<path class="st0" d="M50,78.9c-0.4,2.6-1.2,5.1-2.5,7.3l-0.1,0c0,0-4.2-1.4-6.9-1.4c-2.8,0-6.9,1.4-6.9,1.4l-0.1,0
				c0-0.1-0.1-0.1-0.1-0.2c-1.2-2.2-2-4.6-2.4-7.1c1-0.5,5.8-2.8,9.5-2.8C44.2,76.2,49,78.4,50,78.9z"/>
			<path class="st0" d="M40.5,39.9L28,33.5V18.8l12.5-6.4l12.4,6.4v14.7L40.5,39.9z"/>
			<path class="st0" d="M57.1,41l-12.4,6.4v7.4c1.7,1.3,2.8,3.3,2.8,5.7c0,2.2-1,4.2-2.5,5.5h-0.3v0.1c1.8-0.9,3.8-1.3,5.9-1.3h8.9
				c1,0,1.9,0.5,2.5,1.3l7.6-3.9V47.4L57.1,41z"/>
		</g>
		<path class="st0" d="M75,43.9l-16.6-8.6v-20L40.5,6l-18,9.3v20L5.9,43.9v21.8l12.7,6.5l0.8,1.4c1.5,2.5,4.1,4.1,6.9,4.1
			c1.1,0,2.2-0.2,3.2-0.7c0.3,7.3,4.2,14,10.4,17.6l0.7,0.4l0.7-0.4c6.2-3.6,10.1-10.3,10.3-17.6c1,0.4,2.1,0.7,3.2,0.7
			c2.8,0,5.5-1.6,6.9-4.1l0.8-1.4L75,65.6L75,43.9L75,43.9z M25.3,17l15.2-7.9L55.7,17v18.2l-15.2,7.9l-15.2-7.9V17z M44.1,64.7
			c-1.3,0.6-2.5,1.4-3.7,2.4c-1.1-1-2.3-1.8-3.7-2.4c-1.2-1.1-1.9-2.6-1.9-4.3c0-3.2,2.5-5.7,5.5-5.7s5.5,2.6,5.5,5.7
			C46,62.1,45.3,63.6,44.1,64.7z M8.7,45.6l15.2-7.9l15.2,7.9V52c-3.9,0.7-6.9,4.2-6.9,8.5c0,1.1,0.2,2.1,0.5,3
			c-0.8-0.1-1.5-0.2-2.3-0.2h-8.9c-2.5,0-4.6,2.1-4.6,4.8c0,0,0,0,0,0.1l-8.3-4.3C8.7,63.9,8.7,45.6,8.7,45.6z M26.3,74.7
			c-1.9,0-3.6-1-4.6-2.7l-1.7-3c-0.2-0.3-0.3-0.6-0.3-1c0-1.1,0.8-1.9,1.9-1.9h8.9c2.8,0,5.4,0.9,7.6,2.6L28.9,74
			C28.1,74.5,27.2,74.7,26.3,74.7z M40.5,91.7c-5.1-3.4-8.3-9.3-8.3-15.6v-0.7l8.3-4.8l8.3,4.8v0.7C48.8,82.4,45.6,88.3,40.5,91.7z
			 M59.2,72.1c-1,1.7-2.7,2.7-4.6,2.7c-0.9,0-1.8-0.2-2.6-0.7l-9.2-5.3c2.2-1.7,4.8-2.6,7.6-2.6h8.9c1,0,1.9,0.9,1.9,1.9
			c0,0.3-0.1,0.7-0.3,1L59.2,72.1z M72.3,63.9L64,68.1c0,0,0,0,0-0.1c0-2.6-2.1-4.8-4.6-4.8h-8.9c-0.8,0-1.5,0.1-2.3,0.2
			c0.3-1,0.6-2,0.6-3c0-4.2-3-7.8-6.9-8.5v-6.4l15.2-7.9l15.2,7.9C72.3,45.6,72.3,63.9,72.3,63.9z"/>
	</g>
	<g>
		<path class="st0" d="M87.9,62.9c-0.4,0-0.6-0.2-0.6-0.7c0-0.6,0.7-1.1,2.1-1.4c2.3-0.5,3.6-0.9,3.9-1c1.4-0.6,2.1-1.5,2.1-2.7
			V33.8c-1.2-1.2-2-1.9-2.4-2c-0.5-0.1-0.9-0.1-1.4-0.1c-0.5,0-1-0.1-1.4-0.1c-0.4,1.8-1.2,3.2-2.6,4.2c1.2,1.8,1.8,4.4,1.8,7.9
			c0,0.4,0,0.7,0,1c0,0.3,0,0.5-0.1,0.6c-0.2,0.6-0.5,0.9-1.1,0.9c-0.7,0-1.1-0.5-1.1-1.5c0-0.6,0.3-1.4,0.8-2.3
			c0.5-1,0.8-1.5,0.8-1.6c0-1.2-0.7-2.9-2.1-5c-0.6-0.8-1.1-1.5-1.7-2.3s-1.1-1.5-1.7-2.3h27.6c-3.7,4.7-5.6,7.9-5.6,9.6
			c0,0.1,0.3,0.7,0.8,1.6c0.5,0.9,0.8,1.7,0.8,2.3c0,1-0.4,1.5-1.1,1.5s-1.1-0.8-1.1-2.5c0-3.4,0.6-6,1.8-7.9
			c-0.9-0.6-1.5-1.2-1.8-1.8c-0.1-0.1-0.2-0.4-0.3-0.8s-0.3-0.9-0.5-1.6c-0.1,0-0.3,0-0.6,0.1c-0.3,0-0.7,0-1.1,0
			c-0.7,0-1.3,0.2-1.9,0.7c-0.1,0.1-0.2,0.2-0.5,0.4c-0.3,0.2-0.6,0.6-1.1,1.1v23.3c0,1.3,0.7,2.2,2.1,2.7c0.3,0.1,1.6,0.5,3.9,1
			c1.4,0.3,2.1,0.7,2.1,1.4c0,0.5-0.2,0.7-0.6,0.7c-0.4,0-0.7-0.2-1.1-0.7c-0.1-0.2-0.3-0.3-0.4-0.5s-0.3-0.3-0.4-0.5H89.7
			C89.1,62.4,88.4,62.9,87.9,62.9z"/>
		<path class="st0" d="M122.7,58.8c-0.2,0.3-1.8,2.5-4.7,6.5c-1.7,2.3-2.6,4-2.6,5.1c0,0.7,0.5,1.2,1.4,1.6c1,0.5,1.4,1,1.4,1.7
			c0,0.5-0.2,0.8-0.7,0.8c-0.9,0-1.6-0.4-2.1-1.2c-0.4-0.7-0.6-1.5-0.6-2.4c0-1.3,0.7-3,2.1-5.1c2.3-3.5,3.5-5.6,3.8-6.1
			c1.4-2.7,2.1-5.3,2.1-7.9c0-1.5-0.4-2.8-1.2-4c-0.9-1.3-2-1.9-3.4-1.9c-0.6,0-1.2,0.3-1.9,1c-0.6,0.7-1,1.3-1,1.9v9.9
			c0,0.7,0.4,1.5,1.1,2.5h-4.9c0.7-0.9,1.1-4.8,1.1-11.7c0-7.3-0.3-11.4-0.8-12.3c1.9-0.5,3.4-0.9,4.5-1.3c1.1-0.3,1.9-0.6,2.3-0.8
			c2.4-0.9,4.3-2.4,5.7-4.2h1c-0.5,1.1-1.4,2.1-2.8,2.9c-0.7,0.4-1.3,0.7-2,1.1s-1.3,0.7-1.9,1.1c-1.5,1-2.6,2.4-3.2,4.1v6.6
			c0.4-0.1,1.1-0.6,2.2-1.4c0.8-0.6,1.6-0.9,2.4-0.9c1.7,0,3,0.8,4,2.4c0.9,1.4,1.3,3,1.3,4.9C125.3,53.7,124.4,56.1,122.7,58.8z"/>
		<path class="st0" d="M134.8,51.4c-3.1,2.2-4.6,3.4-4.7,3.7c1.6,3,3.4,4.5,5.3,4.5c0.1,0,0.5,0,1.1-0.2c0.6-0.1,1.4-0.2,2.6-0.4
			c-1.6,1.6-3.4,2.4-5.4,2.4s-3.7-0.9-5-2.7c-1.2-1.7-1.8-3.6-1.8-5.7c0-2.4,0.6-4.5,1.8-6.4c1.4-2.2,3.1-3.2,5.4-3.2
			c1.2,0,2.3,0.4,3.5,1.1c1.3,0.8,1.9,1.8,1.9,3C139.4,47.8,137.9,49.2,134.8,51.4z M135,45.7c-0.8-0.9-1.6-1.3-2.4-1.3
			c-1.9,0-2.8,2.4-2.8,7.2c0,0.8,0.1,1.5,0.2,2c4.1-2.8,6.2-4.6,6.2-5.1C136.2,47.5,135.8,46.6,135,45.7z"/>
		<path class="st0" d="M160.5,61.1c-0.4-0.1-0.7-0.2-1.1-0.3c-0.2,0-0.4,0.1-0.7,0.2c-0.3,0.1-0.7,0.2-1.1,0.3
			c0.7-1.3,1.1-2.3,1.1-3V48.2c0-0.9-0.2-1.6-0.7-1.9c-0.4-0.3-1-0.4-1.9-0.4c-0.5,0-0.9,0.1-1.2,0.3s-0.7,0.5-0.9,0.8
			c-0.3,0.3-0.5,0.8-0.6,1.2s-0.2,0.9-0.2,1.4v9.1c0,0.5,0.1,0.9,0.4,1.3c0.1,0.1,0.2,0.2,0.3,0.4c0.2,0.2,0.4,0.3,0.7,0.6h-5.5
			c1-1.4,1.5-4.5,1.5-9.4c0-2-0.1-3.3-0.3-4c-0.4-1.5-1.3-2.2-2.7-2.2c-2.1,0-3.1,2.9-3.1,8.7v0v0.1l0.1,0.4v1.7
			c0,1.3,0,2.1,0.1,2.5c0.1,0.8,0.5,1.5,1.1,2.2h-4.8c1-1.9,1.5-5.4,1.5-10.6c0-1-0.5-2.3-1.5-3.7c1.1-0.9,2.4-2.2,4-3.9v2.6
			c0.3-0.1,0.9-0.5,1.9-1.1c0.8-0.5,1.5-0.8,2.1-0.8c1.3,0,2.6,0.9,4.2,2.7c0.5-0.5,0.9-0.9,1.2-1.2c0.3-0.3,0.6-0.5,0.8-0.7
			c0.9-0.5,1.7-0.8,2.5-0.8c0.9,0,1.7,0.4,2.5,1.2c0.8,0.8,1.2,1.7,1.2,2.6v14C161.2,61.3,160.9,61.2,160.5,61.1z"/>
		<path class="st0" d="M171.3,51.4c-3.1,2.2-4.6,3.4-4.7,3.7c1.6,3,3.4,4.5,5.3,4.5c0.1,0,0.5,0,1.1-0.2c0.6-0.1,1.4-0.2,2.6-0.4
			c-1.6,1.6-3.4,2.4-5.4,2.4s-3.7-0.9-5-2.7c-1.2-1.7-1.8-3.6-1.8-5.7c0-2.4,0.6-4.5,1.8-6.4c1.4-2.2,3.1-3.2,5.4-3.2
			c1.2,0,2.3,0.4,3.5,1.1c1.3,0.8,1.9,1.8,1.9,3C175.9,47.8,174.3,49.2,171.3,51.4z M171.5,45.7c-0.8-0.9-1.6-1.3-2.4-1.3
			c-1.9,0-2.8,2.4-2.8,7.2c0,0.8,0.1,1.5,0.2,2c4.1-2.8,6.2-4.6,6.2-5.1C172.6,47.5,172.2,46.6,171.5,45.7z"/>
		<path class="st0" d="M194.8,34.5c0,1.1-0.3,2.5-0.8,4.2c-0.5,1.6-1.5,3.3-2.9,5c-0.2,0.3-0.7,0.8-1.4,1.5s-1.5,1.6-2.6,2.7
			c0.8,0.9,1.5,1.6,1.9,2.1s0.7,0.8,0.8,0.9c1,1.3,1.4,2.5,1.4,3.7c0,1.9-0.8,3.4-2.3,4.7c-1.4,1.2-3,1.8-4.8,1.8
			c-1.1,0-2.3-0.3-3.7-1c-0.6-0.3-1.1-0.7-1.7-1s-1.1-0.7-1.7-1c0.5-0.5,1-1.3,1.7-2.1c0.7-0.8,1.5-1.8,2.4-2.9
			c-1.2-1.3-1.9-2.1-2.1-2.5c-0.4-0.6-0.5-1.7-0.5-3.2c0-1.8,0.5-3.2,1.5-4.2c1-1,2.4-1.6,4.1-1.6c1.2,0,3.2,0.6,5.9,1.9
			c0.7-0.8,1.3-1.5,1.8-2.2c0.5-0.7,0.9-1.2,1.2-1.8c0.9-1.5,1.3-3.2,1.3-4.8c0-1.1-0.4-1.9-1.2-2.3s-1.2-1-1.2-1.8
			c0-0.7,0.2-1,0.7-1c1,0,1.6,0.8,1.7,2.4C194.6,32.8,194.8,33.6,194.8,34.5z M185,44.4c-0.8-0.8-1.7-1.2-2.5-1.2
			c-0.6,0-1.1,0.4-1.7,1.1c-0.6,0.7-0.9,1.4-0.9,2c0,0.4,0.1,0.8,0.3,1.2s0.4,0.7,0.8,1c0.3,0.3,0.7,0.5,1.1,0.7s0.8,0.3,1.3,0.3
			c0.6,0,1.2-0.3,1.9-0.9c0.7-0.6,1.1-1.2,1.1-1.8C186.3,46,185.9,45.2,185,44.4z M187.6,53.2c-0.7-1-1.5-1.5-2.4-1.5
			c-0.7,0-1.5,0.4-2.4,1.3c-0.3,0.4-0.6,0.7-0.9,1.1s-0.6,0.7-0.9,1.1c0.2,0.5,0.5,1,0.9,1.4c0.4,0.4,0.7,0.8,1.2,1.1
			c0.4,0.3,0.9,0.5,1.4,0.7s1,0.3,1.4,0.3c1,0,1.7-0.2,2.1-0.6c0.4-0.4,0.6-1.1,0.6-2.1S188.2,54.1,187.6,53.2z"/>
		<g>
			<path class="st0" d="M205,48.5c-0.2,0.3-0.3,0.5-0.3,0.5c-0.5,0.8-1.1,1.3-1.5,1.3l-7.1-0.1c-0.2,0-0.5,0-0.8,0.1
				c-0.1,0.1-0.2,0.2-0.3,0.3s-0.2,0.3-0.3,0.4l-0.5-0.5c1.1-2.2,2.4-3.2,4-3.2c0.6,0,1.4,0,2.5,0.1c1.1,0.1,2,0.1,2.6,0.1
				c0.8,0,1.4-0.3,1.8-1l0.6,0.5C205.4,47.7,205.1,48.2,205,48.5z"/>
			<g>
				<path class="st0" d="M219.1,57.4c-1.5,2.5-3.4,3.7-5.6,3.7c-3.1,0-4.7-2.6-4.7-7.7c0-0.3,0-0.8,0.1-1.3s0.1-1.1,0.1-1.7
					c0.1-0.7,0.1-1.3,0.1-1.8s0.1-0.9,0.1-1.3v-8.2c0-0.5-0.4-1.7-1.1-3.4l4.2-1.3c0.8-0.3,1.6-0.5,2.2-0.8s1.3-0.5,1.9-0.8
					c1.1-0.6,1.8-1.1,2.2-1.6c0.2-0.4,0.5-0.7,0.8-1.1c0.3-0.4,0.6-0.6,1-0.6c0.5,0,0.7,0.2,0.7,0.5c0,1-0.7,1.7-2.1,2.3
					c-3.8,1.4-6.2,3.3-7.3,5.6v6.7c0.1-0.1,0.4-0.2,0.7-0.4s0.8-0.4,1.4-0.8c0.8-0.5,1.6-0.8,2.3-0.8c1.6,0,2.9,0.9,3.8,2.6
					c0.8,1.4,1.1,3,1.1,4.9C221.1,52.8,220.4,55.2,219.1,57.4z M217.8,47.8c-0.7-1.7-1.7-2.5-3.2-2.5c-0.6,0-1.5,0.4-2.5,1.1v11.1
					c0,1.5,0.8,2.2,2.5,2.2c1.4,0,2.5-0.9,3.1-2.8c0.5-1.4,0.8-3,0.8-4.6C218.6,50.4,218.4,49,217.8,47.8z"/>
				<path class="st0" d="M230.6,51.4c-3.1,2.2-4.6,3.4-4.7,3.7c1.6,3,3.4,4.5,5.3,4.5c0.1,0,0.5,0,1.1-0.2c0.6-0.1,1.4-0.2,2.6-0.4
					c-1.6,1.6-3.4,2.4-5.4,2.4s-3.7-0.9-5-2.7c-1.2-1.7-1.8-3.6-1.8-5.7c0-2.4,0.6-4.5,1.8-6.4c1.4-2.2,3.1-3.2,5.4-3.2
					c1.2,0,2.3,0.4,3.5,1.1c1.3,0.8,1.9,1.8,1.9,3C235.2,47.8,233.7,49.2,230.6,51.4z M230.8,45.7c-0.8-0.9-1.6-1.3-2.4-1.3
					c-1.9,0-2.8,2.4-2.8,7.2c0,0.8,0.1,1.5,0.2,2c4.1-2.8,6.2-4.6,6.2-5.1C232,47.5,231.6,46.6,230.8,45.7z"/>
				<path class="st0" d="M245.4,51.4c-3.1,2.2-4.6,3.4-4.7,3.7c1.6,3,3.4,4.5,5.3,4.5c0.1,0,0.5,0,1-0.2c0.6-0.1,1.5-0.2,2.6-0.4
					c-1.6,1.6-3.4,2.4-5.4,2.4s-3.7-0.9-5-2.7c-1.2-1.7-1.8-3.6-1.8-5.7c0-2.4,0.6-4.5,1.8-6.4c1.4-2.2,3.1-3.2,5.4-3.2
					c1.2,0,2.3,0.4,3.5,1.1c1.3,0.8,1.9,1.8,1.9,3C250,47.8,248.5,49.2,245.4,51.4z M245.6,45.7c-0.8-0.9-1.6-1.3-2.5-1.3
					c-1.9,0-2.8,2.4-2.8,7.2c0,0.8,0.1,1.5,0.2,2c4.1-2.8,6.2-4.6,6.2-5.1C246.8,47.5,246.4,46.6,245.6,45.7z"/>
			</g>
		</g>
	</g>
</g>
</svg>
